P3
24 7
255
    0  29 215    0  29 215    0  29 215    0  29 215    0  29 215    0  29 215    0  29 215    0  29 215    0  29 215    0  29 215    0  29 215    0  29 215    0  29 215    0  29 215    0  29 215    0  29 215    0  29 215    0  29 215    0  29 215    0  29 215    0  29 215    0  29 215    0  29 215    0  29 215
    0  29 215   31  31  31   31  31  31   31  31  31   31  31  31    0  29 215    0  29 215   64   0 255   64   0 255   64   0 255   64   0 255    0  29 215    0  29 215  255  64 128  255  64 128  255  64 128  255  64 128    0  29 215    0  29 215  128 255  64  128 255  64  128 255  64  128 255  64    0  29 215
    0  29 215   31  31  31    0  29 215    0  29 215    0  29 215    0  29 215    0  29 215   64   0 255    0  29 215    0  29 215    0  29 215    0  29 215    0  29 215  255  64 128    0  29 215    0  29 215    0  29 215    0  29 215    0  29 215  128 255  64    0  59 174    0  59 174  128 255  64    0  29 215
    0  29 215   31  31  31   31  31  31   31  31  31    0  29 215    0  29 215    0  29 215   64   0 255   64   0 255   64   0 255    0  29 215    0  29 215    0  29 215  255  64 128  255  64 128  255  64 128    0  29 215    0  29 215    0  29 215  128 255  64  128 255  64  128 255  64  128 255  64    0  29 215
    0  29 215   31  31  31    0  29 215    0  29 215    0  29 215    0  29 215    0  29 215   64   0 255    0  29 215    0  29 215    0  29 215    0  29 215    0  29 215  255  64 128    0  29 215    0  29 215    0  29 215    0  29 215    0  29 215  128 255  64    0  29 215    0  29 215    0  29 215    0  29 215
    0  29 215   31  31  31    0  29 215    0  29 215    0  29 215    0  29 215    0  29 215   64   0 255   64   0 255   64   0 255   64   0 255    0  29 215    0  29 215  255  64 128  255  64 128  255  64 128  255  64 128    0  29 215    0  29 215  128 255  64    0  29 215    0  29 215    0  29 215    0  29 215
    0  29 215    0  29 215    0  29 215    0  29 215    0  29 215    0  29 215    0  29 215    0  29 215    0  29 215    0  29 215    0  29 215    0  29 215    0  29 215    0  29 215    0  29 215    0  29 215    0  29 215    0  29 215    0  29 215    0  29 215    0  29 215    0  29 215    0  29 215    0  29 215
